solid OpenSCAD_Model
  facet normal -1 0 0
    outer loop
      vertex 3.5 1.5 2
      vertex 3.5 8.25 3.75
      vertex 3.5 8.25 0.25
    endloop
  endfacet
  facet normal -1 0 0
    outer loop
      vertex 3.5 1.42658 2.46352
      vertex 3.5 1.75 3.75
      vertex 3.5 1.5 2
    endloop
  endfacet
  facet normal -1 -0 0
    outer loop
      vertex 3.5 8.25 3.75
      vertex 3.5 1.5 2
      vertex 3.5 1.75 3.75
    endloop
  endfacet
  facet normal -1 0 0
    outer loop
      vertex 3.5 8.25 0.25
      vertex 3.5 1.42658 1.53648
      vertex 3.5 1.5 2
    endloop
  endfacet
  facet normal -1 0 0
    outer loop
      vertex 3.5 8.25 0.25
      vertex 3.5 1.21352 1.11832
      vertex 3.5 1.42658 1.53648
    endloop
  endfacet
  facet normal -1 0 0
    outer loop
      vertex 3.5 8.25 0.25
      vertex 3.5 0.881678 0.786475
      vertex 3.5 1.21352 1.11832
    endloop
  endfacet
  facet normal -1 0 0
    outer loop
      vertex 3.5 8.25 0.25
      vertex 3.5 0.463525 0.573416
      vertex 3.5 0.881678 0.786475
    endloop
  endfacet
  facet normal -1 0 0
    outer loop
      vertex 3.5 8.25 0.25
      vertex 3.5 0 0.500001
      vertex 3.5 0.463525 0.573416
    endloop
  endfacet
  facet normal -1 -0 0
    outer loop
      vertex 3.5 -1.42658 1.53648
      vertex 3.5 -1.75 0.25
      vertex 3.5 -1.5 2
    endloop
  endfacet
  facet normal -1 -0 0
    outer loop
      vertex 3.5 -1.21352 1.11832
      vertex 3.5 -1.75 0.25
      vertex 3.5 -1.42658 1.53648
    endloop
  endfacet
  facet normal -1 -0 0
    outer loop
      vertex 3.5 -0.881678 0.786475
      vertex 3.5 -1.75 0.25
      vertex 3.5 -1.21352 1.11832
    endloop
  endfacet
  facet normal -1 -0 0
    outer loop
      vertex 3.5 -0.463525 0.573416
      vertex 3.5 -1.75 0.25
      vertex 3.5 -0.881678 0.786475
    endloop
  endfacet
  facet normal -1 -0 0
    outer loop
      vertex 3.5 0 0.500001
      vertex 3.5 -1.75 0.25
      vertex 3.5 -0.463525 0.573416
    endloop
  endfacet
  facet normal -1 0 0
    outer loop
      vertex 3.5 -1.75 0.25
      vertex 3.5 0 0.500001
      vertex 3.5 8.25 0.25
    endloop
  endfacet
  facet normal -1 0 0
    outer loop
      vertex 3.5 1.21352 2.88168
      vertex 3.5 1.75 3.75
      vertex 3.5 1.42658 2.46352
    endloop
  endfacet
  facet normal -1 0 0
    outer loop
      vertex 3.5 0.881678 3.21352
      vertex 3.5 1.75 3.75
      vertex 3.5 1.21352 2.88168
    endloop
  endfacet
  facet normal -1 0 0
    outer loop
      vertex 3.5 0.463525 3.42658
      vertex 3.5 1.75 3.75
      vertex 3.5 0.881678 3.21352
    endloop
  endfacet
  facet normal -1 0 0
    outer loop
      vertex 3.5 0 3.5
      vertex 3.5 1.75 3.75
      vertex 3.5 0.463525 3.42658
    endloop
  endfacet
  facet normal -1 -0 0
    outer loop
      vertex 3.5 1.75 3.75
      vertex 3.5 0 3.5
      vertex 3.5 1.75 15.25
    endloop
  endfacet
  facet normal -1 0 0
    outer loop
      vertex 3.5 -1.75 15.25
      vertex 3.5 0 3.5
      vertex 3.5 -0.463525 3.42658
    endloop
  endfacet
  facet normal -1 0 0
    outer loop
      vertex 3.5 -1.75 15.25
      vertex 3.5 -0.463525 3.42658
      vertex 3.5 -0.881678 3.21352
    endloop
  endfacet
  facet normal -1 0 0
    outer loop
      vertex 3.5 -1.75 15.25
      vertex 3.5 -0.881678 3.21352
      vertex 3.5 -1.21352 2.88168
    endloop
  endfacet
  facet normal -1 0 0
    outer loop
      vertex 3.5 -1.75 15.25
      vertex 3.5 -1.21352 2.88168
      vertex 3.5 -1.42658 2.46352
    endloop
  endfacet
  facet normal -1 0 0
    outer loop
      vertex 3.5 0 3.5
      vertex 3.5 -1.75 15.25
      vertex 3.5 1.75 15.25
    endloop
  endfacet
  facet normal -1 0 0
    outer loop
      vertex 3.5 -1.5 2
      vertex 3.5 -1.75 15.25
      vertex 3.5 -1.42658 2.46352
    endloop
  endfacet
  facet normal -1 0 0
    outer loop
      vertex 3.5 -1.75 15.25
      vertex 3.5 -1.5 2
      vertex 3.5 -1.75 0.25
    endloop
  endfacet
  facet normal -0 0 1
    outer loop
      vertex 3.5 1.75 15.25
      vertex 15.55 -1.75 15.25
      vertex 15.55 1.75 15.25
    endloop
  endfacet
  facet normal 0 0 1
    outer loop
      vertex 15.55 -1.75 15.25
      vertex 3.5 1.75 15.25
      vertex 3.5 -1.75 15.25
    endloop
  endfacet
  facet normal 1 0 0
    outer loop
      vertex 15.55 0 3.5
      vertex 15.55 1.75 3.75
      vertex 15.55 1.75 15.25
    endloop
  endfacet
  facet normal 1 0 0
    outer loop
      vertex 15.55 1.75 3.75
      vertex 15.55 1.42658 2.46352
      vertex 15.55 1.5 2
    endloop
  endfacet
  facet normal 1 0 0
    outer loop
      vertex 15.55 1.75 3.75
      vertex 15.55 1.21352 2.88168
      vertex 15.55 1.42658 2.46352
    endloop
  endfacet
  facet normal 1 0 0
    outer loop
      vertex 15.55 1.75 3.75
      vertex 15.55 0.881678 3.21352
      vertex 15.55 1.21352 2.88168
    endloop
  endfacet
  facet normal 1 0 0
    outer loop
      vertex 15.55 1.75 3.75
      vertex 15.55 0.463525 3.42658
      vertex 15.55 0.881678 3.21352
    endloop
  endfacet
  facet normal 1 0 0
    outer loop
      vertex 15.55 1.75 3.75
      vertex 15.55 0 3.5
      vertex 15.55 0.463525 3.42658
    endloop
  endfacet
  facet normal 1 -0 0
    outer loop
      vertex 15.55 -1.75 15.25
      vertex 15.55 0 3.5
      vertex 15.55 1.75 15.25
    endloop
  endfacet
  facet normal 1 0 0
    outer loop
      vertex 15.55 0 3.5
      vertex 15.55 -1.75 15.25
      vertex 15.55 -0.463525 3.42658
    endloop
  endfacet
  facet normal 1 0 0
    outer loop
      vertex 15.55 -0.463525 3.42658
      vertex 15.55 -1.75 15.25
      vertex 15.55 -0.881678 3.21352
    endloop
  endfacet
  facet normal 1 0 0
    outer loop
      vertex 15.55 -0.881678 3.21352
      vertex 15.55 -1.75 15.25
      vertex 15.55 -1.21352 2.88168
    endloop
  endfacet
  facet normal 1 0 0
    outer loop
      vertex 15.55 -1.42658 2.46352
      vertex 15.55 -1.75 15.25
      vertex 15.55 -1.5 2
    endloop
  endfacet
  facet normal 1 0 0
    outer loop
      vertex 15.55 -1.21352 2.88168
      vertex 15.55 -1.75 15.25
      vertex 15.55 -1.42658 2.46352
    endloop
  endfacet
  facet normal 1 0 0
    outer loop
      vertex 15.55 1.5 2
      vertex 15.55 8.25 3.75
      vertex 15.55 1.75 3.75
    endloop
  endfacet
  facet normal 1 0 0
    outer loop
      vertex 15.55 8.25 3.75
      vertex 15.55 1.5 2
      vertex 15.55 8.25 0.25
    endloop
  endfacet
  facet normal 1 -0 0
    outer loop
      vertex 15.55 1.42658 1.53648
      vertex 15.55 8.25 0.25
      vertex 15.55 1.5 2
    endloop
  endfacet
  facet normal 1 -0 0
    outer loop
      vertex 15.55 1.21352 1.11832
      vertex 15.55 8.25 0.25
      vertex 15.55 1.42658 1.53648
    endloop
  endfacet
  facet normal 1 -0 0
    outer loop
      vertex 15.55 0.881678 0.786475
      vertex 15.55 8.25 0.25
      vertex 15.55 1.21352 1.11832
    endloop
  endfacet
  facet normal 1 -0 0
    outer loop
      vertex 15.55 0.463525 0.573416
      vertex 15.55 8.25 0.25
      vertex 15.55 0.881678 0.786475
    endloop
  endfacet
  facet normal 1 -0 0
    outer loop
      vertex 15.55 0 0.500001
      vertex 15.55 8.25 0.25
      vertex 15.55 0.463525 0.573416
    endloop
  endfacet
  facet normal 1 0 0
    outer loop
      vertex 15.55 0 0.500001
      vertex 15.55 -1.75 0.25
      vertex 15.55 8.25 0.25
    endloop
  endfacet
  facet normal 1 0 0
    outer loop
      vertex 15.55 -0.463525 0.573416
      vertex 15.55 -1.75 0.25
      vertex 15.55 0 0.500001
    endloop
  endfacet
  facet normal 1 0 0
    outer loop
      vertex 15.55 -0.881678 0.786475
      vertex 15.55 -1.75 0.25
      vertex 15.55 -0.463525 0.573416
    endloop
  endfacet
  facet normal 1 0 0
    outer loop
      vertex 15.55 -1.21352 1.11832
      vertex 15.55 -1.75 0.25
      vertex 15.55 -0.881678 0.786475
    endloop
  endfacet
  facet normal 1 0 0
    outer loop
      vertex 15.55 -1.42658 1.53648
      vertex 15.55 -1.75 0.25
      vertex 15.55 -1.21352 1.11832
    endloop
  endfacet
  facet normal 1 0 0
    outer loop
      vertex 15.55 -1.5 2
      vertex 15.55 -1.75 0.25
      vertex 15.55 -1.42658 1.53648
    endloop
  endfacet
  facet normal 1 0 0
    outer loop
      vertex 15.55 -1.75 0.25
      vertex 15.55 -1.5 2
      vertex 15.55 -1.75 15.25
    endloop
  endfacet
  facet normal 0 1 -0
    outer loop
      vertex 15.55 1.75 3.75
      vertex 3.5 1.75 15.25
      vertex 15.55 1.75 15.25
    endloop
  endfacet
  facet normal 0 1 0
    outer loop
      vertex 3.5 1.75 15.25
      vertex 15.55 1.75 3.75
      vertex 3.5 1.75 3.75
    endloop
  endfacet
  facet normal 0 0 -1
    outer loop
      vertex 3.5 -1.75 0.25
      vertex 15.55 8.25 0.25
      vertex 15.55 -1.75 0.25
    endloop
  endfacet
  facet normal -0 0 -1
    outer loop
      vertex 15.55 8.25 0.25
      vertex 3.5 -1.75 0.25
      vertex 3.5 8.25 0.25
    endloop
  endfacet
  facet normal 0 -1 0
    outer loop
      vertex 3.5 -1.75 0.25
      vertex 15.55 -1.75 15.25
      vertex 3.5 -1.75 15.25
    endloop
  endfacet
  facet normal 0 -1 -0
    outer loop
      vertex 15.55 -1.75 15.25
      vertex 3.5 -1.75 0.25
      vertex 15.55 -1.75 0.25
    endloop
  endfacet
  facet normal -0 0 1
    outer loop
      vertex 3.5 8.25 3.75
      vertex 15.55 1.75 3.75
      vertex 15.55 8.25 3.75
    endloop
  endfacet
  facet normal 0 0 1
    outer loop
      vertex 15.55 1.75 3.75
      vertex 3.5 8.25 3.75
      vertex 3.5 1.75 3.75
    endloop
  endfacet
  facet normal 0 1 -0
    outer loop
      vertex 15.55 8.25 0.25
      vertex 3.5 8.25 3.75
      vertex 15.55 8.25 3.75
    endloop
  endfacet
  facet normal 0 1 0
    outer loop
      vertex 3.5 8.25 3.75
      vertex 15.55 8.25 0.25
      vertex 3.5 8.25 0.25
    endloop
  endfacet
  facet normal 0 -0.891007 -0.45399
    outer loop
      vertex 1 -1.21352 1.11832
      vertex 3.5 -1.42658 1.53648
      vertex 1 -1.42658 1.53648
    endloop
  endfacet
  facet normal 0 -0.891007 -0.45399
    outer loop
      vertex 3.5 -1.42658 1.53648
      vertex 1 -1.21352 1.11832
      vertex 3.5 -1.21352 1.11832
    endloop
  endfacet
  facet normal 0 -0.891007 -0.45399
    outer loop
      vertex 15.55 -1.21352 1.11832
      vertex 18.05 -1.42658 1.53648
      vertex 15.55 -1.42658 1.53648
    endloop
  endfacet
  facet normal 0 -0.891007 -0.45399
    outer loop
      vertex 18.05 -1.42658 1.53648
      vertex 15.55 -1.21352 1.11832
      vertex 18.05 -1.21352 1.11832
    endloop
  endfacet
  facet normal 0 0.987688 -0.156436
    outer loop
      vertex 3.5 1.42658 1.53648
      vertex 1 1.5 2
      vertex 3.5 1.5 2
    endloop
  endfacet
  facet normal 0 0.987688 -0.156436
    outer loop
      vertex 1 1.5 2
      vertex 3.5 1.42658 1.53648
      vertex 1 1.42658 1.53648
    endloop
  endfacet
  facet normal 0 0.987688 -0.156436
    outer loop
      vertex 18.05 1.42658 1.53648
      vertex 15.55 1.5 2
      vertex 18.05 1.5 2
    endloop
  endfacet
  facet normal 0 0.987688 -0.156436
    outer loop
      vertex 15.55 1.5 2
      vertex 18.05 1.42658 1.53648
      vertex 15.55 1.42658 1.53648
    endloop
  endfacet
  facet normal -1 -3.47234e-07 -6.81485e-07
    outer loop
      vertex 1 -0.881678 0.786475
      vertex 0.999999 -1.42658 2.46352
      vertex 1 -0.463525 0.573416
    endloop
  endfacet
  facet normal -0 0.156436 0.987688
    outer loop
      vertex 15.55 0.463525 3.42658
      vertex 18.05 0 3.5
      vertex 18.05 0.463525 3.42658
    endloop
  endfacet
  facet normal 0 0.156436 0.987688
    outer loop
      vertex 18.05 0 3.5
      vertex 15.55 0.463525 3.42658
      vertex 15.55 0 3.5
    endloop
  endfacet
  facet normal -0 0.156436 0.987688
    outer loop
      vertex 0.999999 0.463525 3.42658
      vertex 3.5 0 3.5
      vertex 3.5 0.463525 3.42658
    endloop
  endfacet
  facet normal 0 0.156436 0.987688
    outer loop
      vertex 3.5 0 3.5
      vertex 0.999999 0.463525 3.42658
      vertex 0.999999 0 3.5
    endloop
  endfacet
  facet normal 0 0.987688 0.156436
    outer loop
      vertex 18.05 1.5 2
      vertex 15.55 1.42658 2.46352
      vertex 18.05 1.42658 2.46352
    endloop
  endfacet
  facet normal 0 0.987688 0.156436
    outer loop
      vertex 15.55 1.42658 2.46352
      vertex 18.05 1.5 2
      vertex 15.55 1.5 2
    endloop
  endfacet
  facet normal 0 0.987688 0.156436
    outer loop
      vertex 3.5 1.5 2
      vertex 0.999999 1.42658 2.46352
      vertex 3.5 1.42658 2.46352
    endloop
  endfacet
  facet normal 0 0.987688 0.156436
    outer loop
      vertex 0.999999 1.42658 2.46352
      vertex 3.5 1.5 2
      vertex 1 1.5 2
    endloop
  endfacet
  facet normal -1 3.47234e-07 -6.81485e-07
    outer loop
      vertex 1 0.463525 0.573416
      vertex 0.999999 1.42658 2.46352
      vertex 1 0.881678 0.786475
    endloop
  endfacet
  facet normal 0 -0.707107 -0.707107
    outer loop
      vertex 1 -0.881678 0.786475
      vertex 3.5 -1.21352 1.11832
      vertex 1 -1.21352 1.11832
    endloop
  endfacet
  facet normal 0 -0.707107 -0.707107
    outer loop
      vertex 3.5 -1.21352 1.11832
      vertex 1 -0.881678 0.786475
      vertex 3.5 -0.881678 0.786475
    endloop
  endfacet
  facet normal 0 -0.707107 -0.707107
    outer loop
      vertex 15.55 -0.881678 0.786475
      vertex 18.05 -1.21352 1.11832
      vertex 15.55 -1.21352 1.11832
    endloop
  endfacet
  facet normal 0 -0.707107 -0.707107
    outer loop
      vertex 18.05 -1.21352 1.11832
      vertex 15.55 -0.881678 0.786475
      vertex 18.05 -0.881678 0.786475
    endloop
  endfacet
  facet normal 0 -0.156434 -0.987688
    outer loop
      vertex 15.55 -0.463525 0.573416
      vertex 18.05 0 0.500001
      vertex 18.05 -0.463525 0.573416
    endloop
  endfacet
  facet normal -0 -0.156434 -0.987688
    outer loop
      vertex 18.05 0 0.500001
      vertex 15.55 -0.463525 0.573416
      vertex 15.55 0 0.500001
    endloop
  endfacet
  facet normal 0 -0.156434 -0.987688
    outer loop
      vertex 1 -0.463525 0.573416
      vertex 3.5 0 0.500001
      vertex 3.5 -0.463525 0.573416
    endloop
  endfacet
  facet normal -0 -0.156434 -0.987688
    outer loop
      vertex 3.5 0 0.500001
      vertex 1 -0.463525 0.573416
      vertex 1 0 0.500001
    endloop
  endfacet
  facet normal 0 -0.707107 0.707107
    outer loop
      vertex 0.999999 -1.21352 2.88168
      vertex 3.5 -0.881678 3.21352
      vertex 0.999999 -0.881678 3.21352
    endloop
  endfacet
  facet normal 0 -0.707107 0.707107
    outer loop
      vertex 3.5 -0.881678 3.21352
      vertex 0.999999 -1.21352 2.88168
      vertex 3.5 -1.21352 2.88168
    endloop
  endfacet
  facet normal 0 -0.707107 0.707107
    outer loop
      vertex 15.55 -1.21352 2.88168
      vertex 18.05 -0.881678 3.21352
      vertex 15.55 -0.881678 3.21352
    endloop
  endfacet
  facet normal 0 -0.707107 0.707107
    outer loop
      vertex 18.05 -0.881678 3.21352
      vertex 15.55 -1.21352 2.88168
      vertex 18.05 -1.21352 2.88168
    endloop
  endfacet
  facet normal -1 8.42362e-07 -8.42362e-07
    outer loop
      vertex 1 0.881678 0.786475
      vertex 0.999999 1.42658 2.46352
      vertex 1 1.21352 1.11832
    endloop
  endfacet
  facet normal -1 -8.42362e-07 -8.42362e-07
    outer loop
      vertex 1 -1.21352 1.11832
      vertex 0.999999 -1.42658 2.46352
      vertex 1 -0.881678 0.786475
    endloop
  endfacet
  facet normal -1 8.69294e-08 -5.48853e-07
    outer loop
      vertex 1 0 0.500001
      vertex 0.999999 1.42658 2.46352
      vertex 1 0.463525 0.573416
    endloop
  endfacet
  facet normal 0 -0.45399 -0.891007
    outer loop
      vertex 1 -0.881678 0.786475
      vertex 3.5 -0.463525 0.573416
      vertex 3.5 -0.881678 0.786475
    endloop
  endfacet
  facet normal -0 -0.45399 -0.891007
    outer loop
      vertex 3.5 -0.463525 0.573416
      vertex 1 -0.881678 0.786475
      vertex 1 -0.463525 0.573416
    endloop
  endfacet
  facet normal 0 -0.45399 -0.891007
    outer loop
      vertex 15.55 -0.881678 0.786475
      vertex 18.05 -0.463525 0.573416
      vertex 18.05 -0.881678 0.786475
    endloop
  endfacet
  facet normal -0 -0.45399 -0.891007
    outer loop
      vertex 18.05 -0.463525 0.573416
      vertex 15.55 -0.881678 0.786475
      vertex 15.55 -0.463525 0.573416
    endloop
  endfacet
  facet normal -1 0 0
    outer loop
      vertex 0.999999 1.42658 2.46352
      vertex 0.999999 0.881678 3.21352
      vertex 0.999999 1.21352 2.88168
    endloop
  endfacet
  facet normal -1 0 0
    outer loop
      vertex 0.999999 1.42658 2.46352
      vertex 0.999999 0.463525 3.42658
      vertex 0.999999 0.881678 3.21352
    endloop
  endfacet
  facet normal -1 0 0
    outer loop
      vertex 0.999999 1.42658 2.46352
      vertex 0.999999 0 3.5
      vertex 0.999999 0.463525 3.42658
    endloop
  endfacet
  facet normal -1 0 0
    outer loop
      vertex 0.999999 1.42658 2.46352
      vertex 0.999999 -0.463525 3.42658
      vertex 0.999999 0 3.5
    endloop
  endfacet
  facet normal -1 0 0
    outer loop
      vertex 0.999999 1.42658 2.46352
      vertex 0.999999 -0.881678 3.21352
      vertex 0.999999 -0.463525 3.42658
    endloop
  endfacet
  facet normal -1 0 0
    outer loop
      vertex 0.999999 1.42658 2.46352
      vertex 0.999999 -1.21352 2.88168
      vertex 0.999999 -0.881678 3.21352
    endloop
  endfacet
  facet normal -1 0 -0
    outer loop
      vertex 0.999999 -1.21352 2.88168
      vertex 0.999999 1.42658 2.46352
      vertex 0.999999 -1.42658 2.46352
    endloop
  endfacet
  facet normal 0 -0.156436 0.987688
    outer loop
      vertex 15.55 0 3.5
      vertex 18.05 -0.463525 3.42658
      vertex 18.05 0 3.5
    endloop
  endfacet
  facet normal 0 -0.156436 0.987688
    outer loop
      vertex 18.05 -0.463525 3.42658
      vertex 15.55 0 3.5
      vertex 15.55 -0.463525 3.42658
    endloop
  endfacet
  facet normal 0 -0.156436 0.987688
    outer loop
      vertex 0.999999 0 3.5
      vertex 3.5 -0.463525 3.42658
      vertex 3.5 0 3.5
    endloop
  endfacet
  facet normal 0 -0.156436 0.987688
    outer loop
      vertex 3.5 -0.463525 3.42658
      vertex 0.999999 0 3.5
      vertex 0.999999 -0.463525 3.42658
    endloop
  endfacet
  facet normal 0 0.891007 0.45399
    outer loop
      vertex 3.5 1.42658 2.46352
      vertex 0.999999 1.21352 2.88168
      vertex 3.5 1.21352 2.88168
    endloop
  endfacet
  facet normal 0 0.891007 0.45399
    outer loop
      vertex 0.999999 1.21352 2.88168
      vertex 3.5 1.42658 2.46352
      vertex 0.999999 1.42658 2.46352
    endloop
  endfacet
  facet normal 0 0.891007 0.45399
    outer loop
      vertex 18.05 1.42658 2.46352
      vertex 15.55 1.21352 2.88168
      vertex 18.05 1.21352 2.88168
    endloop
  endfacet
  facet normal 0 0.891007 0.45399
    outer loop
      vertex 15.55 1.21352 2.88168
      vertex 18.05 1.42658 2.46352
      vertex 15.55 1.42658 2.46352
    endloop
  endfacet
  facet normal 0 0.891007 -0.45399
    outer loop
      vertex 3.5 1.21352 1.11832
      vertex 1 1.42658 1.53648
      vertex 3.5 1.42658 1.53648
    endloop
  endfacet
  facet normal 0 0.891007 -0.45399
    outer loop
      vertex 1 1.42658 1.53648
      vertex 3.5 1.21352 1.11832
      vertex 1 1.21352 1.11832
    endloop
  endfacet
  facet normal 0 0.891007 -0.45399
    outer loop
      vertex 18.05 1.21352 1.11832
      vertex 15.55 1.42658 1.53648
      vertex 18.05 1.42658 1.53648
    endloop
  endfacet
  facet normal 0 0.891007 -0.45399
    outer loop
      vertex 15.55 1.42658 1.53648
      vertex 18.05 1.21352 1.11832
      vertex 15.55 1.21352 1.11832
    endloop
  endfacet
  facet normal 0 0.45399 -0.891007
    outer loop
      vertex 1 0.463525 0.573416
      vertex 3.5 0.881678 0.786475
      vertex 3.5 0.463525 0.573416
    endloop
  endfacet
  facet normal 0 0.45399 -0.891007
    outer loop
      vertex 3.5 0.881678 0.786475
      vertex 1 0.463525 0.573416
      vertex 1 0.881678 0.786475
    endloop
  endfacet
  facet normal 0 0.45399 -0.891007
    outer loop
      vertex 15.55 0.463525 0.573416
      vertex 18.05 0.881678 0.786475
      vertex 18.05 0.463525 0.573416
    endloop
  endfacet
  facet normal 0 0.45399 -0.891007
    outer loop
      vertex 18.05 0.881678 0.786475
      vertex 15.55 0.463525 0.573416
      vertex 15.55 0.881678 0.786475
    endloop
  endfacet
  facet normal -1 2.01898e-06 -1.02872e-06
    outer loop
      vertex 1 1.21352 1.11832
      vertex 0.999999 1.42658 2.46352
      vertex 1 1.42658 1.53648
    endloop
  endfacet
  facet normal -1 6.49502e-06 -1.02872e-06
    outer loop
      vertex 1 1.42658 1.53648
      vertex 0.999999 1.42658 2.46352
      vertex 1 1.5 2
    endloop
  endfacet
  facet normal 0 0.707107 -0.707107
    outer loop
      vertex 3.5 0.881678 0.786475
      vertex 1 1.21352 1.11832
      vertex 3.5 1.21352 1.11832
    endloop
  endfacet
  facet normal 0 0.707107 -0.707107
    outer loop
      vertex 1 1.21352 1.11832
      vertex 3.5 0.881678 0.786475
      vertex 1 0.881678 0.786475
    endloop
  endfacet
  facet normal 0 0.707107 -0.707107
    outer loop
      vertex 18.05 0.881678 0.786475
      vertex 15.55 1.21352 1.11832
      vertex 18.05 1.21352 1.11832
    endloop
  endfacet
  facet normal 0 0.707107 -0.707107
    outer loop
      vertex 15.55 1.21352 1.11832
      vertex 18.05 0.881678 0.786475
      vertex 15.55 0.881678 0.786475
    endloop
  endfacet
  facet normal 0 0.156434 -0.987688
    outer loop
      vertex 1 0 0.500001
      vertex 3.5 0.463525 0.573416
      vertex 3.5 0 0.500001
    endloop
  endfacet
  facet normal 0 0.156434 -0.987688
    outer loop
      vertex 3.5 0.463525 0.573416
      vertex 1 0 0.500001
      vertex 1 0.463525 0.573416
    endloop
  endfacet
  facet normal 0 0.156434 -0.987688
    outer loop
      vertex 15.55 0 0.500001
      vertex 18.05 0.463525 0.573416
      vertex 18.05 0 0.500001
    endloop
  endfacet
  facet normal 0 0.156434 -0.987688
    outer loop
      vertex 18.05 0.463525 0.573416
      vertex 15.55 0 0.500001
      vertex 15.55 0.463525 0.573416
    endloop
  endfacet
  facet normal -1 0 -4.85695e-07
    outer loop
      vertex 1 0 0.500001
      vertex 0.999999 -1.42658 2.46352
      vertex 0.999999 1.42658 2.46352
    endloop
  endfacet
  facet normal -1 -8.69294e-08 -5.48853e-07
    outer loop
      vertex 1 -0.463525 0.573416
      vertex 0.999999 -1.42658 2.46352
      vertex 1 0 0.500001
    endloop
  endfacet
  facet normal 0 -0.987688 -0.156436
    outer loop
      vertex 1 -1.42658 1.53648
      vertex 3.5 -1.5 2
      vertex 1 -1.5 2
    endloop
  endfacet
  facet normal 0 -0.987688 -0.156436
    outer loop
      vertex 3.5 -1.5 2
      vertex 1 -1.42658 1.53648
      vertex 3.5 -1.42658 1.53648
    endloop
  endfacet
  facet normal 0 -0.987688 -0.156436
    outer loop
      vertex 15.55 -1.42658 1.53648
      vertex 18.05 -1.5 2
      vertex 15.55 -1.5 2
    endloop
  endfacet
  facet normal 0 -0.987688 -0.156436
    outer loop
      vertex 18.05 -1.5 2
      vertex 15.55 -1.42658 1.53648
      vertex 18.05 -1.42658 1.53648
    endloop
  endfacet
  facet normal 0 -0.45399 0.891007
    outer loop
      vertex 0.999999 -0.463525 3.42658
      vertex 3.5 -0.881678 3.21352
      vertex 3.5 -0.463525 3.42658
    endloop
  endfacet
  facet normal 0 -0.45399 0.891007
    outer loop
      vertex 3.5 -0.881678 3.21352
      vertex 0.999999 -0.463525 3.42658
      vertex 0.999999 -0.881678 3.21352
    endloop
  endfacet
  facet normal 0 -0.45399 0.891007
    outer loop
      vertex 15.55 -0.463525 3.42658
      vertex 18.05 -0.881678 3.21352
      vertex 18.05 -0.463525 3.42658
    endloop
  endfacet
  facet normal 0 -0.45399 0.891007
    outer loop
      vertex 18.05 -0.881678 3.21352
      vertex 15.55 -0.463525 3.42658
      vertex 15.55 -0.881678 3.21352
    endloop
  endfacet
  facet normal -0 0.45399 0.891007
    outer loop
      vertex 0.999999 0.881678 3.21352
      vertex 3.5 0.463525 3.42658
      vertex 3.5 0.881678 3.21352
    endloop
  endfacet
  facet normal 0 0.45399 0.891007
    outer loop
      vertex 3.5 0.463525 3.42658
      vertex 0.999999 0.881678 3.21352
      vertex 0.999999 0.463525 3.42658
    endloop
  endfacet
  facet normal -0 0.45399 0.891007
    outer loop
      vertex 15.55 0.881678 3.21352
      vertex 18.05 0.463525 3.42658
      vertex 18.05 0.881678 3.21352
    endloop
  endfacet
  facet normal 0 0.45399 0.891007
    outer loop
      vertex 18.05 0.463525 3.42658
      vertex 15.55 0.881678 3.21352
      vertex 15.55 0.463525 3.42658
    endloop
  endfacet
  facet normal 0 0.707107 0.707107
    outer loop
      vertex 18.05 1.21352 2.88168
      vertex 15.55 0.881678 3.21352
      vertex 18.05 0.881678 3.21352
    endloop
  endfacet
  facet normal 0 0.707107 0.707107
    outer loop
      vertex 15.55 0.881678 3.21352
      vertex 18.05 1.21352 2.88168
      vertex 15.55 1.21352 2.88168
    endloop
  endfacet
  facet normal 0 0.707107 0.707107
    outer loop
      vertex 3.5 1.21352 2.88168
      vertex 0.999999 0.881678 3.21352
      vertex 3.5 0.881678 3.21352
    endloop
  endfacet
  facet normal 0 0.707107 0.707107
    outer loop
      vertex 0.999999 0.881678 3.21352
      vertex 3.5 1.21352 2.88168
      vertex 0.999999 1.21352 2.88168
    endloop
  endfacet
  facet normal -1 -6.49502e-06 -1.02872e-06
    outer loop
      vertex 1 -1.5 2
      vertex 0.999999 -1.42658 2.46352
      vertex 1 -1.42658 1.53648
    endloop
  endfacet
  facet normal -1 -2.01898e-06 -1.02872e-06
    outer loop
      vertex 1 -1.42658 1.53648
      vertex 0.999999 -1.42658 2.46352
      vertex 1 -1.21352 1.11832
    endloop
  endfacet
  facet normal 0 -0.987688 0.156436
    outer loop
      vertex 1 -1.5 2
      vertex 3.5 -1.42658 2.46352
      vertex 0.999999 -1.42658 2.46352
    endloop
  endfacet
  facet normal 0 -0.987688 0.156436
    outer loop
      vertex 3.5 -1.42658 2.46352
      vertex 1 -1.5 2
      vertex 3.5 -1.5 2
    endloop
  endfacet
  facet normal 0 -0.987688 0.156436
    outer loop
      vertex 15.55 -1.5 2
      vertex 18.05 -1.42658 2.46352
      vertex 15.55 -1.42658 2.46352
    endloop
  endfacet
  facet normal 0 -0.987688 0.156436
    outer loop
      vertex 18.05 -1.42658 2.46352
      vertex 15.55 -1.5 2
      vertex 18.05 -1.5 2
    endloop
  endfacet
  facet normal 1 0 0
    outer loop
      vertex 18.05 1.42658 2.46352
      vertex 18.05 1.42658 1.53648
      vertex 18.05 1.5 2
    endloop
  endfacet
  facet normal 1 0 0
    outer loop
      vertex 18.05 1.21352 2.88168
      vertex 18.05 1.42658 1.53648
      vertex 18.05 1.42658 2.46352
    endloop
  endfacet
  facet normal 1 0 0
    outer loop
      vertex 18.05 1.21352 2.88168
      vertex 18.05 1.21352 1.11832
      vertex 18.05 1.42658 1.53648
    endloop
  endfacet
  facet normal 1 0 0
    outer loop
      vertex 18.05 0.881678 3.21352
      vertex 18.05 1.21352 1.11832
      vertex 18.05 1.21352 2.88168
    endloop
  endfacet
  facet normal 1 0 0
    outer loop
      vertex 18.05 0.881678 3.21352
      vertex 18.05 0.881678 0.786475
      vertex 18.05 1.21352 1.11832
    endloop
  endfacet
  facet normal 1 0 0
    outer loop
      vertex 18.05 0.463525 3.42658
      vertex 18.05 0.881678 0.786475
      vertex 18.05 0.881678 3.21352
    endloop
  endfacet
  facet normal 1 0 0
    outer loop
      vertex 18.05 0.463525 3.42658
      vertex 18.05 0.463525 0.573416
      vertex 18.05 0.881678 0.786475
    endloop
  endfacet
  facet normal 1 0 0
    outer loop
      vertex 18.05 0 3.5
      vertex 18.05 0.463525 0.573416
      vertex 18.05 0.463525 3.42658
    endloop
  endfacet
  facet normal 1 0 0
    outer loop
      vertex 18.05 0 3.5
      vertex 18.05 0 0.500001
      vertex 18.05 0.463525 0.573416
    endloop
  endfacet
  facet normal 1 -0 0
    outer loop
      vertex 18.05 -0.463525 3.42658
      vertex 18.05 0 0.500001
      vertex 18.05 0 3.5
    endloop
  endfacet
  facet normal 1 0 0
    outer loop
      vertex 18.05 -0.463525 3.42658
      vertex 18.05 -0.463525 0.573416
      vertex 18.05 0 0.500001
    endloop
  endfacet
  facet normal 1 -0 0
    outer loop
      vertex 18.05 -0.881678 3.21352
      vertex 18.05 -0.463525 0.573416
      vertex 18.05 -0.463525 3.42658
    endloop
  endfacet
  facet normal 1 0 0
    outer loop
      vertex 18.05 -0.881678 3.21352
      vertex 18.05 -0.881678 0.786475
      vertex 18.05 -0.463525 0.573416
    endloop
  endfacet
  facet normal 1 -0 0
    outer loop
      vertex 18.05 -1.21352 2.88168
      vertex 18.05 -0.881678 0.786475
      vertex 18.05 -0.881678 3.21352
    endloop
  endfacet
  facet normal 1 0 0
    outer loop
      vertex 18.05 -1.21352 2.88168
      vertex 18.05 -1.21352 1.11832
      vertex 18.05 -0.881678 0.786475
    endloop
  endfacet
  facet normal 1 -0 0
    outer loop
      vertex 18.05 -1.42658 2.46352
      vertex 18.05 -1.21352 1.11832
      vertex 18.05 -1.21352 2.88168
    endloop
  endfacet
  facet normal 1 0 0
    outer loop
      vertex 18.05 -1.42658 2.46352
      vertex 18.05 -1.42658 1.53648
      vertex 18.05 -1.21352 1.11832
    endloop
  endfacet
  facet normal 1 0 -0
    outer loop
      vertex 18.05 -1.42658 1.53648
      vertex 18.05 -1.42658 2.46352
      vertex 18.05 -1.5 2
    endloop
  endfacet
  facet normal 0 -0.891007 0.45399
    outer loop
      vertex 0.999999 -1.42658 2.46352
      vertex 3.5 -1.21352 2.88168
      vertex 0.999999 -1.21352 2.88168
    endloop
  endfacet
  facet normal 0 -0.891007 0.45399
    outer loop
      vertex 3.5 -1.21352 2.88168
      vertex 0.999999 -1.42658 2.46352
      vertex 3.5 -1.42658 2.46352
    endloop
  endfacet
  facet normal 0 -0.891007 0.45399
    outer loop
      vertex 15.55 -1.42658 2.46352
      vertex 18.05 -1.21352 2.88168
      vertex 15.55 -1.21352 2.88168
    endloop
  endfacet
  facet normal 0 -0.891007 0.45399
    outer loop
      vertex 18.05 -1.21352 2.88168
      vertex 15.55 -1.42658 2.46352
      vertex 18.05 -1.42658 2.46352
    endloop
  endfacet
endsolid OpenSCAD_Model
